<svg id="svg" version="1.1" xmlns="http://www.w3.org/2000/svg" xmlns:xlink="http://www.w3.org/1999/xlink" width="400" height="400" viewBox="0, 0, 400,400"><g id="svgg"><path id="path0" d="M194.400 0.326 C 191.952 0.997,186.400 5.489,186.400 6.798 C 186.400 7.045,186.192 7.119,185.938 6.962 C 185.676 6.800,185.584 6.851,185.725 7.079 C 185.862 7.301,185.716 7.824,185.400 8.241 C 185.084 8.658,184.820 9.405,184.813 9.900 C 184.806 10.395,184.620 10.800,184.400 10.800 C 184.135 10.800,184.000 34.200,184.000 80.200 C 184.000 126.200,184.135 149.600,184.400 149.600 C 184.620 149.600,184.800 149.960,184.800 150.400 C 184.800 150.840,184.991 151.200,185.224 151.200 C 185.457 151.200,185.555 151.350,185.441 151.533 C 184.828 152.526,190.666 158.800,192.203 158.800 C 192.531 158.800,192.800 158.980,192.800 159.200 C 192.800 159.420,193.340 159.600,194.000 159.600 C 194.660 159.600,195.200 159.780,195.200 160.000 C 195.200 160.244,197.067 160.400,200.000 160.400 C 202.933 160.400,204.800 160.244,204.800 160.000 C 204.800 159.780,205.239 159.600,205.776 159.600 C 206.313 159.600,206.864 159.420,207.000 159.200 C 207.136 158.980,207.576 158.800,207.979 158.800 C 208.381 158.800,209.129 158.273,209.642 157.630 C 210.154 156.986,210.693 156.534,210.839 156.624 C 211.126 156.801,213.750 153.753,213.531 153.497 C 213.459 153.412,213.707 153.036,214.083 152.660 C 214.472 152.270,214.658 151.696,214.515 151.323 C 214.347 150.885,214.419 150.765,214.732 150.958 C 215.050 151.154,215.200 150.862,215.200 150.047 C 215.200 149.387,215.381 148.735,215.602 148.599 C 216.272 148.185,216.134 12.596,215.462 11.479 C 215.172 10.996,214.955 10.330,214.980 10.000 C 215.006 9.670,214.890 9.302,214.723 9.183 C 214.557 9.063,214.357 8.553,214.280 8.050 C 214.204 7.546,213.884 6.972,213.570 6.773 C 213.257 6.575,213.148 6.409,213.329 6.406 C 213.833 6.397,212.520 5.200,212.005 5.200 C 211.756 5.200,211.664 5.020,211.800 4.800 C 211.936 4.580,211.846 4.400,211.600 4.400 C 211.354 4.400,211.264 4.220,211.400 4.000 C 211.536 3.780,211.406 3.600,211.112 3.600 C 210.817 3.600,210.324 3.250,210.015 2.821 C 209.707 2.393,209.307 2.134,209.127 2.245 C 208.947 2.356,208.800 2.270,208.800 2.053 C 208.800 0.602,198.081 -0.684,194.400 0.326 M195.400 184.400 C 195.547 184.638,195.071 184.800,194.224 184.800 C 193.441 184.800,192.800 184.980,192.800 185.200 C 192.800 185.420,192.548 185.600,192.241 185.600 C 191.409 185.600,185.512 191.497,186.105 191.737 C 186.495 191.895,186.494 191.944,186.100 191.968 C 185.825 191.986,185.600 192.281,185.600 192.624 C 185.600 192.967,185.420 193.136,185.200 193.000 C 184.967 192.856,184.800 193.263,184.800 193.976 C 184.800 194.649,184.620 195.200,184.400 195.200 C 184.156 195.200,184.000 197.067,184.000 200.000 C 184.000 202.933,184.156 204.800,184.400 204.800 C 184.620 204.800,184.800 205.250,184.800 205.800 C 184.800 206.350,184.980 206.800,185.200 206.800 C 185.420 206.800,185.600 207.174,185.600 207.631 C 185.600 208.577,191.293 214.400,192.218 214.400 C 192.538 214.400,192.800 214.580,192.800 214.800 C 192.800 215.020,193.340 215.200,194.000 215.200 C 194.660 215.200,195.200 215.380,195.200 215.600 C 195.200 216.134,204.687 216.138,204.867 215.603 C 204.940 215.385,205.495 215.166,206.100 215.116 C 206.705 215.066,207.200 214.885,207.200 214.713 C 207.200 214.541,207.470 214.400,207.800 214.400 C 208.130 214.400,208.400 214.220,208.400 214.000 C 208.400 213.780,208.599 213.600,208.842 213.600 C 209.474 213.600,213.879 209.010,214.192 208.026 C 214.336 207.572,214.602 207.200,214.783 207.200 C 214.963 207.200,215.103 206.975,215.093 206.700 C 215.038 205.233,215.245 204.381,215.603 204.602 C 216.275 205.017,216.056 195.599,215.378 194.920 C 215.072 194.614,214.629 193.652,214.395 192.782 C 214.161 191.912,213.790 191.200,213.572 191.200 C 213.354 191.200,213.060 190.900,212.919 190.533 C 212.184 188.617,207.302 184.800,205.588 184.800 C 205.155 184.800,204.800 184.620,204.800 184.400 C 204.800 184.155,202.925 184.000,199.976 184.000 C 196.863 184.000,195.240 184.142,195.400 184.400 M149.720 185.317 C 148.715 185.876,148.219 213.600,149.214 213.600 C 149.452 213.600,149.549 213.760,149.428 213.955 C 148.931 214.759,150.232 215.177,151.766 214.706 C 153.003 214.326,153.147 214.186,152.542 213.948 C 151.894 213.693,151.917 213.653,152.724 213.628 C 153.316 213.610,153.545 213.434,153.362 213.138 C 153.186 212.853,153.252 212.785,153.535 212.960 C 153.787 213.116,154.310 213.059,154.697 212.834 C 155.084 212.609,155.258 212.419,155.084 212.412 C 154.911 212.405,155.001 212.149,155.284 211.842 C 155.568 211.535,155.914 211.352,156.052 211.436 C 156.191 211.520,156.731 210.962,157.252 210.197 C 157.774 209.432,158.346 208.804,158.524 208.803 C 158.702 208.801,158.745 208.635,158.620 208.432 C 158.495 208.230,158.619 207.825,158.896 207.532 C 159.173 207.240,159.463 206.550,159.541 206.000 C 159.618 205.450,159.843 204.697,160.041 204.326 C 160.552 203.368,160.500 195.300,159.982 195.127 C 159.752 195.051,159.535 194.598,159.499 194.122 C 159.463 193.645,159.291 193.344,159.117 193.451 C 158.943 193.559,158.800 193.086,158.800 192.400 C 158.800 191.670,158.634 191.255,158.400 191.400 C 158.180 191.536,158.000 191.356,158.000 191.000 C 158.000 190.644,157.820 190.464,157.600 190.600 C 157.380 190.736,157.200 190.567,157.200 190.224 C 157.200 189.881,157.009 189.600,156.776 189.600 C 156.543 189.600,156.448 189.446,156.564 189.258 C 156.680 189.070,156.331 188.499,155.788 187.988 C 155.244 187.478,154.800 187.218,154.800 187.410 C 154.800 187.603,154.598 187.558,154.351 187.311 C 154.104 187.064,153.609 186.955,153.251 187.069 C 152.692 187.246,152.685 187.216,153.197 186.854 C 153.672 186.519,153.692 186.332,153.297 185.937 C 153.023 185.663,152.800 185.588,152.800 185.769 C 152.800 185.950,152.495 185.851,152.123 185.549 C 151.541 185.076,151.489 185.083,151.753 185.600 C 151.930 185.947,151.817 185.905,151.486 185.500 C 150.815 184.682,150.856 184.686,149.720 185.317 M147.346 215.687 C 147.240 215.859,147.613 216.000,148.176 216.000 C 148.739 216.000,149.200 215.831,149.200 215.625 C 149.200 215.181,147.626 215.234,147.346 215.687 M195.000 240.000 C 194.864 240.220,194.313 240.400,193.776 240.400 C 193.239 240.400,192.800 240.580,192.800 240.800 C 192.800 241.020,192.528 241.200,192.197 241.200 C 191.120 241.200,186.760 245.338,185.980 247.100 C 185.664 247.815,185.269 248.400,185.102 248.400 C 184.936 248.400,184.800 248.929,184.800 249.576 C 184.800 250.223,184.620 250.864,184.400 251.000 C 184.136 251.163,184.000 274.671,184.000 320.224 C 184.000 365.941,184.135 389.200,184.400 389.200 C 184.620 389.200,184.800 389.639,184.800 390.176 C 184.800 390.713,184.980 391.264,185.200 391.400 C 185.420 391.536,185.600 392.007,185.600 392.447 C 185.600 392.887,185.780 393.136,186.000 393.000 C 186.220 392.864,186.400 392.956,186.400 393.205 C 186.400 393.783,191.251 398.557,192.016 398.732 C 192.333 398.805,192.722 399.075,192.881 399.332 C 193.328 400.055,205.915 399.983,206.366 399.255 C 206.651 398.794,206.737 398.794,206.920 399.255 C 207.074 399.642,207.146 399.655,207.168 399.300 C 207.186 399.025,207.488 398.800,207.840 398.800 C 208.626 398.800,214.400 392.966,214.400 392.172 C 214.400 391.857,214.591 391.600,214.824 391.600 C 215.057 391.600,215.135 391.418,214.997 391.195 C 214.859 390.972,215.016 390.249,215.346 389.588 C 215.726 388.827,215.772 388.490,215.473 388.670 C 215.141 388.869,215.148 388.770,215.497 388.340 C 216.187 387.486,216.222 250.984,215.531 250.558 C 215.233 250.373,215.188 250.456,215.400 250.800 C 215.595 251.115,215.566 251.226,215.328 251.079 C 215.111 250.945,215.014 250.287,215.112 249.618 C 215.220 248.883,215.114 248.400,214.845 248.400 C 214.600 248.400,214.400 248.040,214.400 247.600 C 214.400 247.160,214.250 246.800,214.068 246.800 C 213.885 246.800,213.494 246.350,213.200 245.801 C 212.906 245.251,212.584 244.882,212.485 244.982 C 212.256 245.211,211.200 244.170,211.200 243.715 C 211.200 243.527,210.660 243.054,210.000 242.664 C 209.340 242.274,208.800 241.785,208.800 241.577 C 208.800 241.370,208.440 241.200,208.000 241.200 C 207.560 241.200,207.200 241.020,207.200 240.800 C 207.200 240.580,206.660 240.400,206.000 240.400 C 205.340 240.400,204.800 240.220,204.800 240.000 C 204.800 239.756,202.941 239.600,200.024 239.600 C 197.271 239.600,195.142 239.769,195.000 240.000 " stroke="none" fill="#34c4fc" fill-rule="evenodd"></path><path id="path1" d="M211.416 3.973 C 211.271 4.208,211.354 4.400,211.600 4.400 C 211.846 4.400,211.936 4.580,211.800 4.800 C 211.664 5.020,211.855 5.200,212.225 5.200 C 212.803 5.200,212.823 5.102,212.362 4.500 C 212.067 4.115,211.793 3.743,211.753 3.673 C 211.713 3.604,211.561 3.739,211.416 3.973 M215.000 10.400 C 215.246 11.676,216.072 12.502,215.886 11.286 C 215.811 10.793,215.540 10.180,215.284 9.924 C 214.930 9.570,214.862 9.685,215.000 10.400 M248.543 184.555 C 248.071 184.817,247.425 185.248,247.106 185.512 C 246.787 185.777,246.423 185.889,246.296 185.762 C 246.169 185.635,245.864 185.907,245.618 186.366 C 245.373 186.825,244.898 187.200,244.562 187.200 C 244.227 187.200,244.067 187.384,244.206 187.610 C 244.345 187.835,244.311 187.994,244.130 187.963 C 243.211 187.803,242.800 188.082,242.800 188.867 C 242.800 189.343,242.683 189.616,242.540 189.473 C 242.185 189.118,241.228 190.435,241.213 191.300 C 241.206 191.685,241.009 192.000,240.776 192.000 C 240.543 192.000,240.464 192.180,240.600 192.400 C 240.736 192.620,240.567 192.800,240.224 192.800 C 239.778 192.800,239.600 193.199,239.600 194.200 C 239.600 194.970,239.420 195.600,239.200 195.600 C 238.956 195.600,238.800 197.459,238.800 200.376 C 238.800 203.129,238.969 205.258,239.200 205.400 C 239.420 205.536,239.600 205.997,239.600 206.424 C 239.600 206.851,239.780 207.200,240.000 207.200 C 240.220 207.200,240.400 207.560,240.400 208.000 C 240.400 208.440,240.550 208.800,240.732 208.800 C 240.915 208.800,241.320 209.295,241.632 209.900 C 242.347 211.286,243.015 212.000,243.595 212.000 C 243.844 212.000,243.936 212.180,243.800 212.400 C 243.664 212.620,243.756 212.800,244.005 212.800 C 244.254 212.800,244.722 213.065,245.047 213.389 C 245.371 213.714,246.327 214.165,247.171 214.392 C 248.016 214.620,248.930 215.074,249.202 215.403 C 250.100 216.485,388.667 216.286,390.600 215.200 C 391.383 214.760,392.207 214.400,392.430 214.400 C 392.654 214.400,393.290 213.947,393.844 213.392 C 394.398 212.838,395.048 212.506,395.288 212.654 C 395.527 212.802,395.634 212.761,395.525 212.562 C 395.267 212.090,396.642 210.785,397.031 211.133 C 397.194 211.280,397.206 211.187,397.056 210.926 C 396.907 210.665,397.201 210.035,397.710 209.526 C 400.851 206.381,401.000 193.490,397.926 190.753 C 397.527 190.397,397.200 189.947,397.200 189.753 C 397.199 189.140,395.332 187.200,394.742 187.200 C 394.431 187.200,393.917 186.840,393.600 186.400 C 393.283 185.960,392.703 185.600,392.312 185.600 C 391.920 185.600,391.600 185.420,391.600 185.200 C 391.600 184.980,391.251 184.800,390.824 184.800 C 390.397 184.800,389.936 184.620,389.800 184.400 C 389.416 183.779,249.664 183.932,248.543 184.555 M188.800 187.713 C 188.470 187.981,187.937 188.560,187.615 189.000 C 187.294 189.440,187.609 189.271,188.315 188.625 C 189.467 187.572,189.800 187.175,189.500 187.213 C 189.445 187.220,189.130 187.445,188.800 187.713 M210.400 187.330 C 210.400 187.696,212.391 189.742,212.571 189.562 C 212.661 189.472,212.524 189.129,212.267 188.799 C 211.667 188.030,210.400 187.033,210.400 187.330 M214.426 192.800 C 214.427 193.130,214.699 193.850,215.031 194.400 L 215.633 195.400 215.368 194.400 C 214.984 192.948,214.424 191.997,214.426 192.800 M211.200 243.829 C 211.200 244.251,212.302 245.164,212.533 244.933 C 212.659 244.808,212.513 244.456,212.210 244.152 C 211.633 243.576,211.200 243.437,211.200 243.829 M215.086 250.119 C 214.978 250.402,215.116 250.945,215.394 251.325 C 215.851 251.949,215.900 251.917,215.900 251.001 C 215.900 249.871,215.393 249.321,215.086 250.119 M215.570 388.100 C 215.280 389.075,215.282 389.996,215.573 389.816 C 215.780 389.689,215.922 389.228,215.889 388.792 C 215.839 388.117,215.672 387.757,215.570 388.100 " stroke="none" fill="#46b5fc" fill-rule="evenodd"></path><path id="path2" d="M10.200 184.400 C 10.064 184.620,9.618 184.800,9.210 184.800 C 8.801 184.800,8.407 184.966,8.333 185.170 C 8.260 185.374,7.930 185.599,7.600 185.670 C 7.270 185.742,6.709 186.115,6.353 186.500 C 5.997 186.885,5.412 187.200,5.053 187.200 C 4.652 187.200,4.388 187.547,4.368 188.100 C 4.351 188.595,4.247 188.777,4.136 188.504 C 3.873 187.851,2.800 188.868,2.800 189.771 C 2.800 190.117,2.620 190.400,2.400 190.400 C 2.180 190.400,2.000 190.588,2.000 190.817 C 2.000 191.046,1.647 191.612,1.216 192.075 C -1.194 194.662,-0.195 208.397,2.486 209.533 C 2.658 209.607,2.800 209.877,2.800 210.133 C 2.801 210.882,4.632 212.800,5.347 212.800 C 5.706 212.800,6.000 212.961,6.000 213.158 C 6.000 213.355,7.159 214.075,8.575 214.758 L 11.150 216.000 35.418 216.000 C 57.382 216.000,59.663 215.940,59.443 215.367 C 59.309 215.019,59.200 207.999,59.200 199.767 L 59.200 184.800 57.500 184.737 L 55.800 184.674 57.800 184.400 C 58.900 184.249,48.696 184.097,35.124 184.063 C 19.036 184.022,10.361 184.139,10.200 184.400 " stroke="none" fill="#0be8fc" fill-rule="evenodd"></path><path id="path3" d="M57.800 184.400 L 55.800 184.674 57.500 184.737 L 59.200 184.800 59.200 199.767 C 59.200 207.999,59.309 215.019,59.443 215.367 C 59.734 216.125,92.135 216.353,92.600 215.600 C 92.736 215.380,93.647 215.200,94.624 215.200 L 96.400 215.200 96.400 199.600 L 96.400 184.000 78.100 184.063 C 68.035 184.097,58.900 184.249,57.800 184.400 " stroke="none" fill="#1cdcfc" fill-rule="evenodd"></path><path id="path4" d="M96.400 199.600 L 96.400 215.200 94.624 215.200 C 93.647 215.200,92.735 215.382,92.597 215.605 C 92.430 215.876,101.377 216.004,119.756 215.994 C 135.237 215.986,147.261 215.826,147.384 215.625 C 147.505 215.430,148.057 215.321,148.611 215.381 C 149.686 215.499,150.287 215.024,149.600 214.600 C 149.373 214.460,149.291 214.177,149.417 213.972 C 149.544 213.768,149.452 213.600,149.214 213.600 C 148.277 213.600,148.705 185.684,149.647 185.385 C 150.422 185.139,150.425 185.106,149.728 184.577 C 148.770 183.851,147.600 183.851,147.600 184.576 C 147.600 184.893,147.401 185.276,147.157 185.426 C 146.859 185.611,146.803 185.422,146.984 184.850 C 147.214 184.127,147.093 184.000,146.178 184.000 C 145.213 184.000,145.158 184.072,145.644 184.700 C 146.160 185.367,146.147 185.367,145.362 184.700 C 144.596 184.050,142.810 184.000,120.469 184.000 L 96.400 184.000 96.400 199.600 " stroke="none" fill="#22d3fc" fill-rule="evenodd"></path></g></svg>